#!OML:ASF F:\VICON\USERDATA\INSTALL\rory3\rory3.ASF
:FULLY-SPECIFIED
:DEGREES
63
root -0.18238240195300062 18.15316512058464 9.527437200528109 5.320748447103793 -2.9744312024647854 -1.8458092571816431
lfemur 12.473800124218595 -3.141634070430631 -23.73984303851115
ltibia 44.719536708887674
lfoot 3.5063232355188694 -9.85874380171682
ltoes -20.006536750974014
rfemur -38.09444713198572 1.2210054233732621 28.571275218590216
rtibia 33.07537038863249
rfoot 6.452454987106988 -5.66995484297934
rtoes 6.9787618777914275
lowerback 14.108613668423871 -0.6180334409619052 -0.20193530085806777
upperback -1.8425565996928492 -0.8419418399927368 2.6642785347888065
thorax -9.700824337012719 -0.30893271237893805 4.16135778073968
lowerneck -20.049898119873244 -2.288849862579327 -2.204923131996753
upperneck 16.122580436207905 -2.8227298898303026 2.0387479319736044
head 8.494603224878997 -1.1781632167499594 0.528742177929392
lclavicle 7.933867046369032e-17 -3.5106937238476134e-16
lhumerus -42.79768845883699 -14.774234883977265 95.57111558736686
lradius 113.51306744331696
lwrist 33.970775663471144
lhand -23.71339240395543 1.3133392728590856
lfingers 7.12502
lthumb 2.8643744370407296 31.348592567511268
rclavicle 7.933867057362237e-17 -3.5106937230355196e-16
rhumerus -60.60052246001928 5.618520423815444 -95.49988601433199
rradius 109.8222013571969
rwrist -11.511677339126436
rhand -16.733494588886213 41.737067663791876
rfingers 7.12502
rthumb 9.15248524309371 11.84567222903594
64
root -0.17442830112150032 18.15097579270649 10.00491893180543 5.1897669313724295 -2.994804858603958 -1.839450885958495
lfemur 11.65102586952742 -3.2242396826126574 -23.56880402380816
ltibia 47.468711371292024
lfoot 3.6803028625565393 -9.475404217387004
ltoes -20.032776019789576
rfemur -36.59178994461924 1.2909594465365568 28.782884225270795
rtibia 32.188600872548754
rfoot 5.787264813870088 -5.324278888376212
rtoes 2.7633526832792286
lowerback 14.135448481153393 -0.5604722840073512 -0.08960247363853613
upperback -1.8130607141874782 -0.7690161892165357 2.6257947986704617
thorax -9.699769269380734 -0.2664463492551098 4.1839538722841
lowerneck -20.059941014285027 -2.3218477156683255 -2.1787639342041265
upperneck 16.067973112560228 -2.8655588914979564 1.9985082787638304
head 8.48506279743887 -1.203159195360577 0.5129547346138718
lclavicle 7.933867046403387e-17 -3.510693723843486e-16
lhumerus -42.94072904761068 -15.314450880880077 95.8415065183683
lradius 112.77879421072275
lwrist 33.74909431080733
lhand -23.65364967009971 1.3429258347052178
lfingers 7.12502
lthumb 2.846152250220806 31.34393721318641
rclavicle 7.93386705725704e-17 -3.510693723042175e-16
rhumerus -60.678767147349184 5.265089116388439 -95.16712254253362
rradius 109.94682679991197
rwrist -11.344544146914522
rhand -16.793498524417746 41.74810806993688
rfingers 7.12502
rthumb 9.132926086798381 11.795067346334685
65
root -0.1670370239948438 18.138995143028403 10.4702052581182 5.019514098372108 -3.007933847935525 -1.8173887222203309
lfemur 10.755619798586078 -3.2337452471930943 -23.38804748325063
ltibia 50.50443758969088
lfoot 3.5852041662553638 -9.260169042627984
ltoes -21.0301835887068
rfemur -35.031777429963995 1.3549288201703074 28.993058246176272
rtibia 31.73383730229814
rfoot 5.230328373656483 -5.0730825443790515
rtoes -0.38907184052940424
lowerback 14.184194658200289 -0.4983844715857574 0.005233115103984609
upperback -1.7603489687711533 -0.6832656765238643 2.5662553644181685
thorax -9.730198115703814 -0.23532110149726249 4.150699804536785
lowerneck -20.0746515312066 -2.3637597605639327 -2.1517984887307033
upperneck 15.960406421285622 -2.9112746987242835 1.9629301175727072
head 8.45415751315496 -1.230736399566472 0.49800148953276335
lclavicle 7.93386704657767e-17 -3.510693723827673e-16
lhumerus -43.034779618708946 -15.866701227378062 96.10863364238462
lradius 111.93348581575104
lwrist 33.55500959574334
lhand -23.57629611514937 1.4061246843447908
lfingers 7.12502
lthumb 2.8897653968241785 31.405892075854908
rclavicle 7.93386705710042e-17 -3.5106937230519047e-16
rhumerus -60.677291691397514 4.943095527321024 -94.86603015853811
rradius 110.03611380121927
rwrist -11.180299780248266
rhand -16.853800570684673 41.697406288278955
rfingers 7.12502
rthumb 9.131016667659901 11.696281661364925
66
root -0.16308009158967435 18.121685098801855 10.856977111808908 4.828070560893192 -3.0373958137987245 -1.8089715485229056
lfemur 9.779111210235303 -3.1601504051183418 -23.15260352010545
ltibia 53.8162147769418
lfoot 3.6156553004839047 -9.14523747511018
ltoes -21.282949812537723
rfemur -33.42102717514154 1.4451185398316801 29.212944103860664
rtibia 31.71341877521555
rfoot 4.534992677419512 -5.008728149348927
rtoes -2.1678435097499156
lowerback 14.258487267080959 -0.4219958273282848 0.09872698034531702
upperback -1.6780459495367777 -0.5708874127841261 2.4993076057966723
thorax -9.745873813439824 -0.17993703432785335 4.1077308153392
lowerneck -20.113917959613946 -2.418631703615829 -2.119479071289323
upperneck 15.838689062443308 -2.9895481688061327 1.9403322442698094
head 8.407525585176819 -1.27687949347566 0.4912891900779768
lclavicle 7.933867046635898e-17 -3.510693723820734e-16
lhumerus -43.10637553627184 -16.37486372803464 96.33956807869808
lradius 111.00527064115018
lwrist 33.40063922750599
lhand -23.5913618821818 1.43840429445659
lfingers 7.12502
lthumb 2.9429855385117483 31.377558815408896
rclavicle 7.933867056486389e-17 -3.5106937230970187e-16
rhumerus -60.59735594724584 4.637494668207137 -94.59939400313537
rradius 110.0963870107581
rwrist -11.051745647805356
rhand -16.905401022482277 41.60346920878588
rfingers 7.12502
rthumb 9.138033350680677 11.570180432530384
67
root -0.1579959372315619 18.09578009806894 11.301494024018147 4.611666362257993 -3.0733141088934612 -1.8142555480496414
lfemur 8.728669563757279 -3.0083511438791137 -22.8515466845699
ltibia 57.34593780617639
lfoot 3.5673069808444957 -9.010091084185945
ltoes -21.365704230231678
rfemur -31.804990704400065 1.5563603330621307 29.446659403189624
rtibia 32.13543374990856
rfoot 3.7251525795481477 -5.1576600765296075
rtoes -4.078024209720612
lowerback 14.346597703896169 -0.332729934114267 0.20285699401241009
upperback -1.6011425560436745 -0.4345508305536787 2.433181478198163
thorax -9.761760965702436 -0.10450537066726406 4.038179287900402
lowerneck -20.130155712611824 -2.474138937968454 -2.0795523916010277
upperneck 15.690100704159502 -3.075079586026158 1.9229068920223682
head 8.346996111173334 -1.328315351415153 0.4896447539929928
lclavicle 7.933867046688803e-17 -3.5106937238143003e-16
lhumerus -43.13233328943151 -16.934359789813602 96.56281566397843
lradius 109.97806444232897
lwrist 33.25754618634805
lhand -23.6908898858229 1.3572691050347951
lfingers 7.12502
lthumb 3.0691964126559315 31.551551644898787
rclavicle 7.933867055979154e-17 -3.510693723133516e-16
rhumerus -60.47052194229727 4.324024986240358 -94.37068671204133
rradius 110.12830876500549
rwrist -10.82342517573086
rhand -16.946664569481104 41.46008798951051
rfingers 7.12502
rthumb 9.142343752086125 11.414318330622976
68
root -0.15093001576931436 18.048232605031746 11.739309528967357 4.3523648173059195 -3.1033144501037784 -1.8107107931790156
lfemur 7.6015468625755 -2.783115111286726 -22.511320136029614
ltibia 61.01483083472987
lfoot 3.004242615816227 -8.880303539649901
ltoes -22.37771498182022
rfemur -30.221728228708123 1.6922127440610952 29.66771742023879
rtibia 33.04771866547573
rfoot 2.7939584590887576 -5.323646026961115
rtoes -6.7307961576758695
lowerback 14.445925423995009 -0.23720576151559503 0.29275714709686174
upperback -1.527126986413597 -0.2909309256788497 2.3612187086590435
thorax -9.798307111650608 -0.03311798849733105 3.927730464898885
lowerneck -20.19271868334265 -2.5247091131989117 -2.040758861950685
upperneck 15.519494001761096 -3.148760456781641 1.9097641096376206
head 8.288783275344448 -1.3725132548898014 0.48599628135972195
lclavicle 7.933867046912424e-17 -3.510693723795506e-16
lhumerus -43.08973050989225 -17.51468388973151 96.79505126523487
lradius 108.86408660285127
lwrist 33.11940260020581
lhand -23.79175376143156 1.3115488571679976
lfingers 7.12502
lthumb 3.0772317924294654 31.65862580807808
rclavicle 7.933867055871155e-17 -3.510693723140254e-16
rhumerus -60.272779168758206 4.044016537430051 -94.17802941207434
rradius 110.1227813763467
rwrist -10.514111569568504
rhand -16.977005133195764 41.2895817557487
rfingers 7.12502
rthumb 9.116023161258104 11.211503438451656
69
root -0.13983814782914444 18.00274088225697 12.208234246952014 4.099549407774815 -3.0790212816838043 -1.8386654692845217
lfemur 6.406761484957027 -2.531915857873027 -22.098914184370678
ltibia 64.74851852215468
lfoot 2.5413526859397955 -8.690909229611355
ltoes -22.587436222188668
rfemur -28.63660152348786 1.7759383464724545 29.90498939412813
rtibia 34.30547529039578
rfoot 1.8702486856251817 -5.502989305115356
rtoes -8.484877125536666
lowerback 14.538975814812899 -0.15333679309660075 0.4193524077260369
upperback -1.4229516212356093 -0.16707620928101874 2.2774394985917197
thorax -9.822700616911295 0.02076514219494363 3.761747039968358
lowerneck -20.32797688138541 -2.5761335060692367 -1.9898243784091665
upperneck 15.328753471385978 -3.2228099315026926 1.8978111167978242
head 8.225326491561171 -1.4170776302342194 0.4826642332311689
lclavicle 7.933867047192487e-17 -3.510693723773839e-16
lhumerus -42.951524178291116 -17.99283809100778 96.94331048379871
lradius 107.7148617383963
lwrist 32.975235478827294
lhand -23.847276686443454 1.360807302425662
lfingers 7.12502
lthumb 2.9829777462563274 31.56191973676703
rclavicle 7.933867055942346e-17 -3.510693723134932e-16
rhumerus -60.00700152143281 3.804297985402978 -94.02372368120584
rradius 110.09298021958628
rwrist -10.28317612325864
rhand -16.975936894348514 41.13862506650177
rfingers 7.12502
rthumb 9.108912086537124 11.023477172128796
